PathFileType	4	(X/Y/Z)	C:\Users\italobelli\Desktop\GitHub\PTbot_officialCBL\Personal_Results\FLX23_noisy2.trc
DataRate	CameraRate	NumFrames	NumMarkers	Units	OrigDataRate	OrigDataStartFrame	OrigNumFrames
106.533333	106.533333	50	9	m	106.533333	601	800
Frame#	Time		gu		centelbow		EpL		centpxt8		centijc7		ij		ts		aa		ai
			X1	Y1	Z1	X2	Y2	Z2	X3	Y3	Z3	X4	Y4	Z4	X5	Y5	Z5	X6	Y6	Z6	X7	Y7	Z7	X8	Y8	Z8	X9	Y9	Z9

601	5.632	-0.073165	0.0008318	0.16623	-0.052986	-0.22978	0.21998	-0.031021	-0.21915	0.24106	-0.046816	-0.15316	-0.008669	-0.046816	0.031938	-0.008669	0	0	0	-0.13782	0.029399	0.05293	-0.10114	0.031955	0.16664	-0.1512	-0.082523	0.065727
602	5.6414	-0.073129	0.00035732	0.16631	-0.055277	-0.23033	0.21938	-0.033228	-0.21998	0.24054	-0.046816	-0.15316	-0.008669	-0.046816	0.031938	-0.008669	0	0	0	-0.13774	0.029373	0.053041	-0.10112	0.03162	0.16678	-0.15132	-0.082544	0.065604
603	5.6508	-0.073093	-0.00011326	0.16639	-0.057568	-0.23087	0.21878	-0.03544	-0.22081	0.24001	-0.046816	-0.15316	-0.008669	-0.046816	0.031938	-0.008669	0	0	0	-0.13766	0.029346	0.053152	-0.1011	0.031287	0.16692	-0.15143	-0.082566	0.065484
604	5.6602	-0.073057	-0.00057953	0.16647	-0.059859	-0.23141	0.21819	-0.037655	-0.22161	0.23949	-0.046816	-0.15316	-0.008669	-0.046816	0.031938	-0.008669	0	0	0	-0.13758	0.029318	0.053263	-0.10108	0.030958	0.16706	-0.15155	-0.082587	0.065366
605	5.6696	-0.073022	-0.0010411	0.16655	-0.062146	-0.23193	0.21759	-0.039871	-0.2224	0.23897	-0.046816	-0.15316	-0.008669	-0.046816	0.031938	-0.008669	0	0	0	-0.1375	0.029289	0.053375	-0.10106	0.030633	0.1672	-0.15166	-0.08261	0.065251
606	5.679	-0.072986	-0.0014975	0.16662	-0.064427	-0.23244	0.21701	-0.042084	-0.22318	0.23845	-0.046816	-0.15316	-0.008669	-0.046816	0.031938	-0.008669	0	0	0	-0.13743	0.029259	0.053487	-0.10104	0.030312	0.16734	-0.15177	-0.082632	0.065139
607	5.6884	-0.07295	-0.0019485	0.1667	-0.066701	-0.23294	0.21642	-0.044294	-0.22394	0.23794	-0.046816	-0.15316	-0.008669	-0.046816	0.031938	-0.008669	0	0	0	-0.13735	0.029228	0.053598	-0.10103	0.029995	0.16748	-0.15189	-0.082654	0.06503
608	5.6977	-0.072915	-0.0023935	0.16677	-0.068964	-0.23343	0.21584	-0.046498	-0.22468	0.23742	-0.046816	-0.15316	-0.008669	-0.046816	0.031938	-0.008669	0	0	0	-0.13728	0.029196	0.05371	-0.10101	0.029683	0.16761	-0.152	-0.082677	0.064923
609	5.7071	-0.072879	-0.0028322	0.16684	-0.071216	-0.23391	0.21526	-0.048694	-0.2254	0.23691	-0.046816	-0.15316	-0.008669	-0.046816	0.031938	-0.008669	0	0	0	-0.1372	0.029164	0.053821	-0.10099	0.029375	0.16774	-0.15211	-0.0827	0.064819
610	5.7165	-0.072843	-0.0032641	0.16691	-0.073453	-0.23438	0.21469	-0.050879	-0.22611	0.2364	-0.046816	-0.15316	-0.008669	-0.046816	0.031938	-0.008669	0	0	0	-0.13713	0.029132	0.053932	-0.10097	0.029073	0.16787	-0.15222	-0.082722	0.064718
611	5.7259	-0.072807	-0.003689	0.16698	-0.075673	-0.23483	0.21412	-0.053052	-0.22681	0.2359	-0.046816	-0.15316	-0.008669	-0.046816	0.031938	-0.008669	0	0	0	-0.13706	0.029099	0.054041	-0.10096	0.028777	0.168	-0.15233	-0.082745	0.064619
612	5.7353	-0.072772	-0.0041063	0.16705	-0.077874	-0.23528	0.21355	-0.05521	-0.22748	0.2354	-0.046816	-0.15316	-0.008669	-0.046816	0.031938	-0.008669	0	0	0	-0.13699	0.029066	0.054151	-0.10094	0.028486	0.16812	-0.15243	-0.082767	0.064523
613	5.7447	-0.072736	-0.0045157	0.16712	-0.080054	-0.2357	0.21299	-0.057351	-0.22814	0.2349	-0.046816	-0.15316	-0.008669	-0.046816	0.031938	-0.008669	0	0	0	-0.13692	0.029033	0.054258	-0.10092	0.028201	0.16824	-0.15254	-0.082789	0.06443
614	5.7541	-0.0727	-0.0049167	0.16719	-0.082211	-0.23612	0.21244	-0.059473	-0.22877	0.2344	-0.046816	-0.15316	-0.008669	-0.046816	0.031938	-0.008669	0	0	0	-0.13685	0.029	0.054365	-0.10091	0.027923	0.16836	-0.15264	-0.082811	0.064339
615	5.7635	-0.072664	-0.0053091	0.16726	-0.084343	-0.23653	0.21189	-0.061574	-0.2294	0.23392	-0.046816	-0.15316	-0.008669	-0.046816	0.031938	-0.008669	0	0	0	-0.13678	0.028968	0.054471	-0.10089	0.027651	0.16848	-0.15274	-0.082832	0.064251
616	5.7728	-0.072628	-0.0056923	0.16732	-0.086447	-0.23692	0.21135	-0.063651	-0.23	0.23343	-0.046816	-0.15316	-0.008669	-0.046816	0.031938	-0.008669	0	0	0	-0.13671	0.028935	0.054575	-0.10088	0.027386	0.16859	-0.15284	-0.082853	0.064165
617	5.7822	-0.072592	-0.0060659	0.16739	-0.08852	-0.23729	0.21081	-0.065703	-0.23058	0.23295	-0.046816	-0.15316	-0.008669	-0.046816	0.031938	-0.008669	0	0	0	-0.13664	0.028903	0.054677	-0.10087	0.027129	0.16871	-0.15294	-0.082874	0.064082
618	5.7916	-0.072556	-0.0064296	0.16746	-0.090562	-0.23766	0.21027	-0.067727	-0.23114	0.23247	-0.046816	-0.15316	-0.008669	-0.046816	0.031938	-0.008669	0	0	0	-0.13657	0.028872	0.054777	-0.10085	0.026879	0.16881	-0.15303	-0.082894	0.064001
619	5.801	-0.07252	-0.006783	0.16752	-0.092569	-0.23801	0.20975	-0.069721	-0.23169	0.232	-0.046816	-0.15316	-0.008669	-0.046816	0.031938	-0.008669	0	0	0	-0.13651	0.028842	0.054876	-0.10084	0.026637	0.16892	-0.15312	-0.082914	0.063923
620	5.8104	-0.072484	-0.0071256	0.16759	-0.09454	-0.23834	0.20923	-0.071683	-0.23221	0.23154	-0.046816	-0.15316	-0.008669	-0.046816	0.031938	-0.008669	0	0	0	-0.13644	0.028812	0.054972	-0.10083	0.026404	0.16902	-0.15321	-0.082932	0.063848
621	5.8198	-0.072448	-0.0074571	0.16765	-0.096472	-0.23866	0.20872	-0.07361	-0.23271	0.23108	-0.046816	-0.15316	-0.008669	-0.046816	0.031938	-0.008669	0	0	0	-0.13637	0.028784	0.055066	-0.10081	0.026178	0.16912	-0.1533	-0.082951	0.063775
622	5.8292	-0.072411	-0.007777	0.16771	-0.098363	-0.23897	0.20821	-0.075501	-0.2332	0.23063	-0.046816	-0.15316	-0.008669	-0.046816	0.031938	-0.008669	0	0	0	-0.1363	0.028756	0.055157	-0.1008	0.025962	0.16922	-0.15338	-0.082968	0.063704
623	5.8385	-0.072375	-0.008085	0.16778	-0.10021	-0.23926	0.20771	-0.077354	-0.23366	0.23018	-0.046816	-0.15316	-0.008669	-0.046816	0.031938	-0.008669	0	0	0	-0.13623	0.02873	0.055246	-0.10079	0.025755	0.16931	-0.15346	-0.082985	0.063636
624	5.8479	-0.072338	-0.0083807	0.16784	-0.10201	-0.23953	0.20722	-0.079166	-0.2341	0.22974	-0.046816	-0.15316	-0.008669	-0.046816	0.031938	-0.008669	0	0	0	-0.13617	0.028705	0.055332	-0.10078	0.025557	0.1694	-0.15354	-0.083	0.063571
625	5.8573	-0.072302	-0.0086635	0.16791	-0.10377	-0.23979	0.20673	-0.080934	-0.23452	0.22931	-0.046816	-0.15316	-0.008669	-0.046816	0.031938	-0.008669	0	0	0	-0.1361	0.028681	0.055415	-0.10077	0.025368	0.16949	-0.15361	-0.083015	0.063508
626	5.8667	-0.072265	-0.0089333	0.16797	-0.10547	-0.24004	0.20626	-0.082658	-0.23492	0.22888	-0.046816	-0.15316	-0.008669	-0.046816	0.031938	-0.008669	0	0	0	-0.13603	0.02866	0.055495	-0.10076	0.02519	0.16957	-0.15368	-0.083029	0.063447
627	5.8761	-0.072228	-0.0091894	0.16803	-0.10713	-0.24026	0.20579	-0.084334	-0.2353	0.22846	-0.046816	-0.15316	-0.008669	-0.046816	0.031938	-0.008669	0	0	0	-0.13596	0.02864	0.055571	-0.10075	0.025022	0.16965	-0.15375	-0.083041	0.063389
628	5.8855	-0.072191	-0.0094316	0.1681	-0.10873	-0.24047	0.20533	-0.085961	-0.23566	0.22805	-0.046816	-0.15316	-0.008669	-0.046816	0.031938	-0.008669	0	0	0	-0.13589	0.028621	0.055645	-0.10074	0.024864	0.16972	-0.15381	-0.083053	0.063333
629	5.8949	-0.072153	-0.0096594	0.16816	-0.11027	-0.24067	0.20487	-0.087536	-0.23599	0.22764	-0.046816	-0.15316	-0.008669	-0.046816	0.031938	-0.008669	0	0	0	-0.13582	0.028605	0.055714	-0.10073	0.024718	0.1698	-0.15387	-0.083063	0.06328
630	5.9043	-0.072116	-0.0098725	0.16822	-0.11175	-0.24085	0.20443	-0.089057	-0.2363	0.22725	-0.046816	-0.15316	-0.008669	-0.046816	0.031938	-0.008669	0	0	0	-0.13575	0.028591	0.05578	-0.10072	0.024582	0.16986	-0.15393	-0.083072	0.063229
631	5.9136	-0.072078	-0.01007	0.16829	-0.11317	-0.24101	0.204	-0.090522	-0.23659	0.22686	-0.046816	-0.15316	-0.008669	-0.046816	0.031938	-0.008669	0	0	0	-0.13568	0.028579	0.055842	-0.10071	0.024458	0.16993	-0.15398	-0.08308	0.06318
632	5.923	-0.07204	-0.010253	0.16835	-0.11453	-0.24115	0.20357	-0.091929	-0.23685	0.22648	-0.046816	-0.15316	-0.008669	-0.046816	0.031938	-0.008669	0	0	0	-0.13561	0.02857	0.055899	-0.1007	0.024346	0.16999	-0.15402	-0.083086	0.063134
633	5.9324	-0.072003	-0.010419	0.16842	-0.11583	-0.24128	0.20315	-0.093275	-0.23709	0.22611	-0.046816	-0.15316	-0.008669	-0.046816	0.031938	-0.008669	0	0	0	-0.13553	0.028563	0.055953	-0.10069	0.024246	0.17004	-0.15406	-0.083091	0.06309
634	5.9418	-0.071964	-0.010569	0.16848	-0.11705	-0.24139	0.20275	-0.094559	-0.23731	0.22574	-0.046816	-0.15316	-0.008669	-0.046816	0.031938	-0.008669	0	0	0	-0.13546	0.028558	0.056002	-0.10068	0.024158	0.1701	-0.1541	-0.083095	0.063048
635	5.9512	-0.071926	-0.010702	0.16855	-0.11821	-0.24148	0.20235	-0.095778	-0.2375	0.22539	-0.046816	-0.15316	-0.008669	-0.046816	0.031938	-0.008669	0	0	0	-0.13538	0.028557	0.056046	-0.10068	0.024083	0.17014	-0.15413	-0.083097	0.063009
636	5.9606	-0.071887	-0.010818	0.16861	-0.1193	-0.24155	0.20196	-0.09693	-0.23767	0.22505	-0.046816	-0.15316	-0.008669	-0.046816	0.031938	-0.008669	0	0	0	-0.13531	0.028558	0.056086	-0.10067	0.02402	0.17019	-0.15416	-0.083097	0.062972
637	5.97	-0.071849	-0.010917	0.16868	-0.12031	-0.24161	0.20159	-0.098014	-0.23781	0.22471	-0.046816	-0.15316	-0.008669	-0.046816	0.031938	-0.008669	0	0	0	-0.13523	0.028562	0.056121	-0.10066	0.023971	0.17023	-0.15418	-0.083095	0.062937
638	5.9793	-0.07181	-0.010997	0.16875	-0.12124	-0.24164	0.20122	-0.099025	-0.23793	0.22439	-0.046816	-0.15316	-0.008669	-0.046816	0.031938	-0.008669	0	0	0	-0.13515	0.028569	0.05615	-0.10065	0.023936	0.17026	-0.15419	-0.083092	0.062905
639	5.9887	-0.07177	-0.011059	0.16882	-0.1221	-0.24166	0.20086	-0.099964	-0.23802	0.22407	-0.046816	-0.15316	-0.008669	-0.046816	0.031938	-0.008669	0	0	0	-0.13508	0.02858	0.056175	-0.10065	0.023914	0.17029	-0.1542	-0.083087	0.062875
640	5.9981	-0.071731	-0.011103	0.16889	-0.12287	-0.24165	0.20052	-0.10083	-0.23809	0.22377	-0.046816	-0.15316	-0.008669	-0.046816	0.031938	-0.008669	0	0	0	-0.135	0.028594	0.056194	-0.10064	0.023907	0.17032	-0.15421	-0.083081	0.062847
641	6.0075	-0.07169	-0.011131	0.16896	-0.12359	-0.24163	0.20018	-0.10163	-0.23814	0.22347	-0.046816	-0.15316	-0.008669	-0.046816	0.031938	-0.008669	0	0	0	-0.13491	0.02861	0.056209	-0.10063	0.023911	0.17034	-0.15421	-0.083072	0.062822
642	6.0169	-0.071647	-0.011154	0.16903	-0.1243	-0.2416	0.19984	-0.10243	-0.23817	0.22317	-0.046816	-0.15316	-0.008669	-0.046816	0.031938	-0.008669	0	0	0	-0.13483	0.028627	0.056222	-0.10063	0.02392	0.17036	-0.15419	-0.083063	0.062797
643	6.0263	-0.0716	-0.011172	0.1691	-0.12501	-0.24156	0.19949	-0.10322	-0.23819	0.22287	-0.046816	-0.15316	-0.008669	-0.046816	0.031938	-0.008669	0	0	0	-0.13474	0.028645	0.056233	-0.10062	0.023934	0.17038	-0.15416	-0.083054	0.062775
644	6.0357	-0.071551	-0.011185	0.16918	-0.1257	-0.2415	0.19915	-0.104	-0.23821	0.22256	-0.046816	-0.15316	-0.008669	-0.046816	0.031938	-0.008669	0	0	0	-0.13465	0.028662	0.056244	-0.10062	0.023953	0.17041	-0.15412	-0.083044	0.062754
645	6.0451	-0.071499	-0.011193	0.16926	-0.12639	-0.24144	0.1988	-0.10477	-0.23821	0.22226	-0.046816	-0.15316	-0.008669	-0.046816	0.031938	-0.008669	0	0	0	-0.13456	0.028681	0.056252	-0.10061	0.023976	0.17043	-0.15407	-0.083034	0.062734
646	6.0544	-0.071445	-0.011197	0.16934	-0.12707	-0.24137	0.19845	-0.10552	-0.23821	0.22195	-0.046816	-0.15316	-0.008669	-0.046816	0.031938	-0.008669	0	0	0	-0.13447	0.028699	0.056259	-0.1006	0.024004	0.17045	-0.15401	-0.083023	0.062716
647	6.0638	-0.071388	-0.011196	0.16942	-0.12774	-0.24129	0.19809	-0.10627	-0.23819	0.22164	-0.046816	-0.15316	-0.008669	-0.046816	0.031938	-0.008669	0	0	0	-0.13437	0.028718	0.056265	-0.1006	0.024035	0.17048	-0.15393	-0.083012	0.062699
648	6.0732	-0.07133	-0.011192	0.1695	-0.12841	-0.24119	0.19774	-0.10701	-0.23817	0.22133	-0.046816	-0.15316	-0.008669	-0.046816	0.031938	-0.008669	0	0	0	-0.13427	0.028737	0.05627	-0.10059	0.02407	0.1705	-0.15385	-0.083	0.062683
649	6.0826	-0.071269	-0.011184	0.16958	-0.12907	-0.2411	0.19739	-0.10773	-0.23814	0.22102	-0.046816	-0.15316	-0.008669	-0.046816	0.031938	-0.008669	0	0	0	-0.13417	0.028757	0.056273	-0.10058	0.024109	0.17052	-0.15375	-0.082988	0.062668
650	6.092	-0.071206	-0.011172	0.16967	-0.12971	-0.24099	0.19703	-0.10845	-0.2381	0.22072	-0.046816	-0.15316	-0.008669	-0.046816	0.031938	-0.008669	0	0	0	-0.13407	0.028777	0.056275	-0.10058	0.024151	0.17055	-0.15365	-0.082975	0.062654
